<svg xmlns="http://www.w3.org/2000/svg"  viewBox="0 0 72 72" width="128px" height="128px"><path d="M 29.5 14 C 20.94 14 14 20.94 14 29.5 L 14 42.5 C 14 51.06 20.94 58 29.5 58 L 42.5 58 C 51.06 58 58 51.06 58 42.5 L 58 29.5 C 58 20.94 51.06 14 42.5 14 L 29.5 14 z M 26 22 L 46 22 C 48.209 22 50 23.791 50 26 L 50 46 C 50 48.209 48.209 50 46 50 L 26 50 C 23.791 50 22 48.209 22 46 L 22 26 C 22 23.791 23.791 22 26 22 z M 30.917969 29.416016 C 27.281969 29.416016 24.332031 32.364 24.332031 36 C 24.332031 39.635 27.281969 42.582031 30.917969 42.582031 C 34.553969 42.582031 37.501953 39.636 37.501953 36 C 37.501953 32.364 34.553969 29.416016 30.917969 29.416016 z M 41.417969 29.734375 C 39.618969 29.734375 38.158203 32.54 38.158203 36 C 38.158203 39.46 39.617969 42.265625 41.417969 42.265625 C 43.217969 42.265625 44.675781 39.46 44.675781 36 C 44.675781 32.54 43.216969 29.734375 41.417969 29.734375 z M 46.478516 30.404297 C 45.852516 30.404297 45.345703 32.909 45.345703 36 C 45.345703 39.091 45.852516 41.595703 46.478516 41.595703 C 47.104516 41.595703 47.611328 39.09 47.611328 36 C 47.611328 32.91 47.104516 30.404297 46.478516 30.404297 z"/></svg>