<?xml version="1.0" encoding="iso-8859-1"?>
<!-- Uploaded to: SVG Repo, www.svgrepo.com, Generator: SVG Repo Mixer Tools -->
<svg height="800px" width="800px" version="1.1" id="Layer_1" xmlns="http://www.w3.org/2000/svg" xmlns:xlink="http://www.w3.org/1999/xlink" 
	 viewBox="0 0 512 512" xml:space="preserve">
<path style="fill:#694646;" d="M469.779,102.079H346.315l-10.624-42.497c-3.816-15.256-17.461-25.912-33.186-25.912h-93.011
	c-15.724,0-29.37,10.656-33.186,25.912l-10.624,42.497H42.221c-18.891,0-34.205,15.314-34.205,34.205v307.841
	c0,18.891,15.314,34.205,34.205,34.205h427.557c18.891,0,34.205-15.314,34.205-34.205V136.284
	C503.983,117.393,488.669,102.079,469.779,102.079z M200.943,102.079l8.551-34.205h93.011l8.551,34.205H200.943z"/>
<path style="fill:#643C3E;" d="M469.779,102.079H42.221c-18.892,0-34.205,15.314-34.205,34.205v46.918l34.326,102.982
	c9.328,27.978,35.408,46.777,64.9,46.777h297.515c29.493,0,55.573-18.799,64.899-46.777l34.326-102.979v-46.92
	C503.983,117.393,488.67,102.079,469.779,102.079z"/>
<path style="fill:#735050;" d="M13.354,118.089l53.327,159.982c5.82,17.459,22.158,29.235,40.562,29.235h297.515
	c18.403,0,34.742-11.776,40.562-29.235l53.327-159.982c-6.06-9.592-16.684-16.01-28.869-16.01H42.221
	C30.037,102.079,19.412,108.497,13.354,118.089z"/>
<path style="fill:#FFB95A;" d="M273.102,358.614h-34.205c-4.722,0-8.551-3.829-8.551-8.551v-68.409c0-4.722,3.829-8.551,8.551-8.551
	h34.205c4.722,0,8.551,3.829,8.551,8.551v68.409C281.653,354.785,277.825,358.614,273.102,358.614z"/>
<path style="fill:#FFD26E;" d="M281.653,324.409h-51.307v-42.756c0-4.722,3.829-8.551,8.551-8.551h34.205
	c4.722,0,8.551,3.829,8.551,8.551V324.409z"/>
<path d="M469.779,94.063H352.573l-9.106-36.426c-4.71-18.832-21.554-31.983-40.962-31.983h-93.011
	c-19.408,0-36.253,13.152-40.963,31.985l-9.105,36.425H42.221C18.941,94.063,0,113.003,0,136.284v307.841
	c0,23.28,18.941,42.221,42.221,42.221h427.557c23.28,0,42.221-18.941,42.221-42.221V136.284
	C512,113.003,493.059,94.063,469.779,94.063z M184.086,61.528c2.922-11.682,13.371-19.841,25.409-19.841h93.011
	c12.038,0,22.486,8.159,25.409,19.84l8.133,32.536h-18.732l-7.033-28.132c-0.891-3.569-4.098-6.072-7.777-6.072h-93.011
	c-3.678,0-6.885,2.503-7.777,6.072l-7.031,28.132h-18.732L184.086,61.528z M300.789,94.063h-89.578l4.543-18.171h80.492
	L300.789,94.063z M42.221,110.096h427.557c8.005,0,15.177,3.614,19.985,9.291l-52.05,156.149
	c-4.736,14.208-17.98,23.754-32.957,23.754H289.67v-17.637c0-9.136-7.432-16.568-16.568-16.568h-34.205
	c-9.136,0-16.568,7.432-16.568,16.568v17.637H107.243c-14.976,0-28.221-9.546-32.957-23.753l-52.05-156.15
	C27.044,113.71,34.216,110.096,42.221,110.096z M273.637,316.392h-35.273v-34.739c0-0.295,0.239-0.534,0.534-0.534h34.205
	c0.295,0,0.534,0.239,0.534,0.534V316.392z M238.363,332.426h35.273v17.637c0,0.295-0.239,0.534-0.534,0.534h-34.205
	c-0.295,0-0.534-0.239-0.534-0.534V332.426z M469.779,470.313H42.221c-14.44,0-26.188-11.748-26.188-26.188V151.481l43.042,129.126
	c6.922,20.765,26.279,34.717,48.168,34.717H222.33v34.739c0,9.136,7.432,16.568,16.568,16.568h34.205
	c9.136,0,16.568-7.432,16.568-16.568v-34.739h115.087c21.889,0,41.245-13.951,48.168-34.717l43.042-129.126v292.644
	C495.967,458.565,484.218,470.313,469.779,470.313z"/>
</svg>